<svg width="20" height="14" viewBox="0 0 20 14" fill="none" xmlns="http://www.w3.org/2000/svg">
<path d="M1.92505 0C1.73835 0 1.56125 0.0445089 1.39806 0.11775L9.45815 8.10189C9.80654 8.44688 10.1776 8.44726 10.5268 8.10189L18.6018 0.11775C18.4388 0.0443223 18.2615 0 18.0748 0H1.92493H1.92505ZM0.51491 1.38822C0.505798 1.46165 0.5 1.53884 0.5 1.61528V12.3845C0.5 13.2794 1.13548 14 1.92507 14H18.0749C18.8643 14 19.5 13.2796 19.5 12.3845V1.61528C19.5 1.53884 19.4942 1.46166 19.4851 1.38804L11.4619 9.32218C10.6248 10.1498 9.35996 10.1511 8.52282 9.32218L0.514904 1.38804L0.51491 1.38822Z" fill="#AE0102"/>
</svg>
