<svg width="70" height="40" viewBox="0 0 70 40" fill="none" xmlns="http://www.w3.org/2000/svg">
<g clip-path="url(#clip0_130_10)">
<path d="M20.16 23.0426C22.093 23.0426 23.66 21.4946 23.66 19.5851C23.66 17.6756 22.093 16.1277 20.16 16.1277C18.227 16.1277 16.66 17.6756 16.66 19.5851C16.66 21.4946 18.227 23.0426 20.16 23.0426Z" fill="url(#paint0_radial_130_10)"/>
<path d="M24.8346 32.7156C23.3949 33.1933 21.886 33.4361 20.3672 33.4347C12.635 33.4347 6.3672 27.2431 6.3672 19.6049C6.3672 13.4728 10.4076 8.27417 16.002 6.46247L13.9944 0.501831C5.873 3.09768 0 10.6294 0 19.5164C0 30.554 9.0566 39.5005 20.23 39.5005C22.5148 39.5005 24.71 39.1257 26.7582 38.4369L24.8346 32.7156Z" fill="url(#paint1_radial_130_10)"/>
<path d="M25.3344 25.4005C23.9541 26.601 22.1438 27.3298 20.16 27.3298C15.8298 27.3298 12.32 23.8627 12.32 19.5851C12.32 15.3076 15.8298 11.8404 20.16 11.8404C22.141 11.8404 23.9484 12.5679 25.3288 13.7655L29.4714 9.10074C27.0228 7.02766 23.8434 5.77606 20.3658 5.77606C12.6336 5.77606 6.36584 11.9677 6.36584 19.6058C6.36584 27.244 12.6336 33.4356 20.3658 33.4356C23.8574 33.4356 27.0494 32.173 29.5009 30.0861L25.3344 25.4005Z" fill="#222222"/>
<path d="M43.82 12.6702H41.9006L38.64 21.708L35.3794 12.6702H30.5382L28.98 14.5041V24.6786L30.527 26.5H33.46V17.5618L36.6856 26.5H40.523L43.785 17.4622L43.82 17.5618V26.5H48.3V12.6702H43.82ZM68.8758 12.6702H62.7494L56.42 17.7541V12.6702H51.94V26.5H56.42V22.6733L58.576 20.9418L63.1512 26.5H68.9248L62.0522 18.1496L68.8758 12.6702Z" fill="#222222"/>
</g>
<defs>
<radialGradient id="paint0_radial_130_10" cx="0" cy="0" r="1" gradientUnits="userSpaceOnUse" gradientTransform="translate(16.7854 19.5851) scale(6.73146 207.469)">
<stop stop-color="#860806"/>
<stop offset="0.154255" stop-color="#A71111"/>
<stop offset="0.768617" stop-color="#B70101"/>
<stop offset="1" stop-color="#AB0102"/>
</radialGradient>
<radialGradient id="paint1_radial_130_10" cx="0" cy="0" r="1" gradientUnits="userSpaceOnUse" gradientTransform="translate(0.479047 20.0012) scale(25.7317 1170.09)">
<stop stop-color="#860806"/>
<stop offset="0.154255" stop-color="#A71111"/>
<stop offset="0.768617" stop-color="#B70101"/>
<stop offset="1" stop-color="#AB0102"/>
</radialGradient>
<clipPath id="clip0_130_10">
<rect width="70" height="39" fill="white" transform="translate(0 0.5)"/>
</clipPath>
</defs>
</svg>
