<svg width="35" height="35" viewBox="0 0 35 35" fill="none" xmlns="http://www.w3.org/2000/svg">
<circle cx="17.5" cy="17.5" r="17.5" fill="#F6F5F3"/>
<path d="M22.9254 26.8126C21.1399 26.6638 19.4205 26.0749 17.767 25.046C16.113 24.0177 14.6666 22.7198 13.4276 21.1523C12.188 19.5854 11.215 17.8235 10.5085 15.8666C9.80137 13.9103 9.49471 11.9369 9.58848 9.94642C9.60157 9.66867 9.69552 9.44414 9.87033 9.27282C10.0451 9.1015 10.2571 9.02623 10.5063 9.047L13.8696 9.3274C14.0634 9.34356 14.2331 9.42742 14.3788 9.57898C14.5245 9.73055 14.6061 9.9155 14.6236 10.1338L15.0108 13.4192C15.0283 13.6375 15.0157 13.8339 14.973 14.0081C14.9298 14.183 14.8426 14.3347 14.7115 14.4631L12.6115 16.5652C13.1405 17.7247 13.8181 18.8268 14.6443 19.8716C15.4704 20.9164 16.3928 21.8376 17.4112 22.6351L19.4653 20.6221C19.5964 20.4936 19.7641 20.4029 19.9683 20.3499C20.172 20.2975 20.37 20.2948 20.5623 20.3418L23.3969 21.2287C23.5885 21.2912 23.7427 21.4084 23.8597 21.5805C23.9766 21.7532 24.03 21.9476 24.0198 22.1636L23.8431 25.9132C23.8301 26.191 23.7361 26.4155 23.5613 26.5868C23.3865 26.7581 23.1745 26.8334 22.9254 26.8126Z" fill="#646464"/>
</svg>
